# xmcd
#
# Track frame offsets:
# 150
# 29555
# 67160
# 97070
# 135997
# 169143
# 194724
# 222844
# 247873
# 279099
#
# Disc length: 4232 seconds
#
# Revision: 4
# Processed by: cddbd v1.4PL0 Copyright (c) Steve Scherf et al.
# Submitted via: CDex 1.40Beta9
#
DISCID=9310860a
DTITLE=Kruder and Dorfmeister - The K&D Sessions CD1
DYEAR=1998
DGENRE=Trip-Hop
TTITLE0=Roni Size - Heroes (Kruder's Long Loose Bossa)
TTITLE1=Alex Reece - Jazz Master (K&D Session)
TTITLE2=Count Basic - Speechless (Drum 'n' Bass)
TTITLE3=Rocker's HiFi - Going Under (K&D Session)
TTITLE4=Bomb The Bass - Bug Powder Dust (K&D Session)
TTITLE5=Aphrodelics - Rollin' On Chrome (Wild Motherfucker Dub)
TTITLE6=Depeche Mode - Useless (K&D Session)
TTITLE7=Count Basic - Gotta Jazz
TTITLE8=Rainer Trüby Trio - Donaueschingen (Peter Kruder´s Donaudampfschiffahrtsgesellschaftskapitänskajütenremix)
TTITLE9=Lamb - Trans Fatty Acid (K&D Session)
EXTD=!K7\n YEAR: 1998 ID3G: 27
EXTT0=
EXTT1=
EXTT2=
EXTT3=
EXTT4=
EXTT5=
EXTT6=
EXTT7=
EXTT8=
EXTT9=
PLAYORDER=
